PathFileType	4	(X/Y/Z)	C:\Users\86182\Documents\cortex\Trimmed_M1_H16.trc
DataRate	CameraRate	NumFrames	NumMarkers	Units	OrigDataRate	OrigDataStartFrame	OrigNumFrames
100.00	100.00	       98	2	mm	100.00	721	       901
Frame#	Time	gripper			box			
		X1	Y1	Z1	X2	Y2	Z2	

721	7.200	204.48676	209.01556	293.46432	230.58260	205.02296	141.38824	
722	7.210	204.48669	209.01555	293.46429	230.58260	205.02296	141.38824	
723	7.220	204.48672	209.01556	293.46429	230.58260	205.02296	141.38824	
724	7.230	204.48686	209.01569	293.46445	230.58260	205.02296	141.38824	
725	7.240	204.48718	209.01595	293.46478	230.58260	205.02296	141.38824	
726	7.250	204.48772	209.01639	293.46533	230.58260	205.02296	141.38824	
727	7.260	204.48836	209.01694	293.46597	230.58260	205.02296	141.38824	
728	7.270	204.48897	209.01746	293.46661	230.58260	205.02296	141.38824	
729	7.280	204.48947	209.01788	293.46716	230.58260	205.02296	141.38824	
730	7.290	204.48985	209.01819	293.46753	230.58260	205.02296	141.38824	
731	7.300	204.49010	209.01839	293.46780	230.58260	205.02296	141.38828	
732	7.310	204.49023	209.01851	293.46793	230.58260	205.02296	141.38828	
733	7.320	204.49028	209.01854	293.46799	230.58260	205.02296	141.38828	
734	7.330	204.49025	209.01852	293.46796	230.58260	205.02296	141.38828	
735	7.340	204.49016	209.01843	293.46783	230.58260	205.02296	141.38828	
736	7.350	204.48999	209.01828	293.46765	230.58260	205.02296	141.38828	
737	7.360	204.48973	209.01807	293.46741	230.58260	205.02296	141.38826	
738	7.370	204.48933	209.01773	293.46698	230.58260	205.02296	141.38824	
739	7.380	204.48875	209.01724	293.46640	230.58260	205.02296	141.38824	
740	7.390	204.48795	209.01659	293.46558	230.58260	205.02296	141.38824	
741	7.400	204.48694	209.01575	293.46451	230.58260	205.02296	141.38824	
742	7.410	204.48579	209.01485	293.46335	230.58260	205.02296	141.38824	
743	7.420	204.48460	209.01392	293.46216	230.58260	205.02296	141.38824	
744	7.430	204.48335	209.01294	293.46091	230.58260	205.02296	141.38824	
745	7.440	204.48209	209.01198	293.45966	230.58260	205.02296	141.38824	
746	7.450	204.48100	209.01114	293.45856	230.58260	205.02296	141.38824	
747	7.460	204.48039	209.01067	293.45795	230.58260	205.02296	141.38828	
748	7.470	204.48061	209.01082	293.45816	230.58260	205.02296	141.38828	
749	7.480	204.48172	209.01167	293.45929	230.58260	205.02296	141.38828	
750	7.490	204.48340	209.01299	293.46097	230.58260	205.02296	141.38828	
751	7.500	204.48517	209.01437	293.46274	230.58260	205.02296	141.38828	
752	7.510	204.48666	209.01558	293.46426	230.58260	205.02296	141.38826	
753	7.520	204.48773	209.01640	293.46533	230.58260	205.02296	141.38824	
754	7.530	204.48825	209.01682	293.46585	230.58260	205.02296	141.38824	
755	7.540	204.48825	209.01680	293.46582	230.58260	205.02296	141.38824	
756	7.550	204.48784	209.01646	293.46539	230.58260	205.02296	141.38824	
757	7.560	204.48715	209.01593	293.46472	230.58260	205.02296	141.38824	
758	7.570	204.48630	209.01526	293.46387	230.58260	205.02296	141.38824	
759	7.580	204.48531	209.01450	293.46289	230.58260	205.02296	141.38824	
760	7.590	204.48416	209.01363	293.46173	230.58260	205.02296	141.38824	
761	7.600	204.48291	209.01268	293.46051	230.58260	205.02296	141.38824	
762	7.610	204.48181	209.01184	293.45941	230.58260	205.02296	141.38824	
763	7.620	204.48131	209.01144	293.45889	230.58260	205.02296	141.38826	
764	7.630	204.48175	209.01180	293.45935	230.58260	205.02296	141.38828	
765	7.640	204.48308	209.01282	293.46066	230.58260	205.02296	141.38828	
766	7.650	204.48473	209.01411	293.46234	230.58260	205.02296	141.38828	
767	7.660	204.48618	209.01524	293.46381	230.58260	205.02296	141.38828	
768	7.670	204.48709	209.01595	293.46469	230.58260	205.02296	141.38828	
769	7.680	204.48734	209.01610	293.46490	230.58260	205.02296	141.38828	
770	7.690	204.48698	209.01578	293.46454	230.58260	205.02296	141.38828	
771	7.700	204.48622	209.01511	293.46368	230.58260	205.02296	141.38828	
772	7.710	204.48528	209.01431	293.46271	230.58260	205.02296	141.38828	
773	7.720	204.48439	209.01357	293.46179	230.58260	205.02296	141.38828	
774	7.730	204.48380	209.01308	293.46118	230.58260	205.02296	141.38829	
775	7.740	204.48364	209.01295	293.46106	230.58260	205.02296	141.38828	
776	7.750	204.48395	209.01321	293.46136	230.58260	205.02296	141.38828	
777	7.760	204.48459	209.01375	293.46204	230.58260	205.02296	141.38828	
778	7.770	204.48537	209.01440	293.46286	230.58260	205.02296	141.38828	
779	7.780	204.48611	209.01505	293.46362	230.58260	205.02296	141.38828	
780	7.790	204.48672	209.01555	293.46426	230.58260	205.02296	141.38828	
781	7.800	204.48706	209.01584	293.46460	230.58260	205.02296	141.38826	
782	7.810	204.48706	209.01584	293.46460	230.58260	205.02296	141.38824	
783	7.820	204.48679	209.01559	293.46432	230.58260	205.02296	141.38824	
784	7.830	204.48643	209.01527	293.46396	230.58260	205.02296	141.38824	
785	7.840	204.48621	209.01506	293.46368	230.58260	205.02296	141.38824	
786	7.850	204.48616	209.01500	293.46365	230.58260	205.02296	141.38824	
787	7.860	204.48618	209.01500	293.46365	230.58260	205.02296	141.38824	
788	7.870	204.48608	209.01491	293.46356	230.58260	205.02296	141.38824	
789	7.880	204.48587	209.01472	293.46332	230.58260	205.02296	141.38824	
790	7.890	204.48563	209.01457	293.46307	230.58260	205.02296	141.38824	
791	7.900	204.48557	209.01463	293.46310	230.58260	205.02296	141.38824	
792	7.910	204.48581	209.01503	293.46347	230.58260	205.02296	141.38824	
793	7.920	204.48622	209.01569	293.46411	230.58260	205.02296	141.38824	
794	7.930	204.48660	209.01642	293.46478	230.58260	205.02296	141.38828	
795	7.940	204.48677	209.01707	293.46533	230.58260	205.02296	141.38828	
796	7.950	204.48676	209.01756	293.46564	230.58260	205.02296	141.38828	
797	7.960	204.48665	209.01788	293.46579	230.58260	205.02296	141.38828	
798	7.970	204.48657	209.01805	293.46588	230.58260	205.02296	141.38828	
799	7.980	204.48648	209.01817	293.46591	230.58260	205.02296	141.38828	
800	7.990	204.48628	209.01828	293.46588	230.58260	205.02296	141.38828	
801	8.000	204.48586	209.01833	293.46570	230.58260	205.02296	141.38828	
802	8.010	204.48518	209.01817	293.46524	230.58260	205.02296	141.38828	
803	8.020	204.48442	209.01772	293.46454	230.58260	205.02296	141.38828	
804	8.030	204.48373	209.01691	293.46368	230.58260	205.02296	141.38828	
805	8.040	204.48315	209.01584	293.46271	230.58260	205.02296	141.38824	
806	8.050	204.48270	209.01471	293.46173	230.58260	205.02296	141.38824	
807	8.060	204.48241	209.01367	293.46094	230.58260	205.02296	141.38824	
808	8.070	204.48235	209.01289	293.46039	230.58260	205.02296	141.38824	
809	8.080	204.48238	209.01236	293.46002	230.58260	205.02296	141.38824	
810	8.090	204.48245	209.01204	293.45984	230.58260	205.02296	141.38824	
811	8.100	204.48260	209.01202	293.45990	230.58260	205.02296	141.38824	
812	8.110	204.48294	209.01236	293.46033	230.58260	205.02296	141.38824	
813	8.120	204.48346	209.01309	293.46106	230.58260	205.02296	141.38824	
814	8.130	204.48402	209.01410	293.46198	230.58260	205.02296	141.38824	
815	8.140	204.48447	209.01518	293.46295	230.58260	205.02296	141.38824	
816	8.150	204.48462	209.01616	293.46368	230.58260	205.02298	141.38828	
817	8.160	204.48448	209.01686	293.46408	230.58260	205.02298	141.38828	
818	8.170	204.48427	209.01724	293.46423	230.58261	205.02299	141.38828	
